<?xml version="1.0" encoding="utf-8"?>
<!-- Generator: Adobe Illustrator 25.2.0, SVG Export Plug-In . SVG Version: 6.00 Build 0)  -->
<svg version="1.1" id="Warstwa_1" xmlns="http://www.w3.org/2000/svg" xmlns:xlink="http://www.w3.org/1999/xlink" x="0px" y="0px"
	 viewBox="0 0 472.9 100.7" style="enable-background:new 0 0 472.9 100.7;" xml:space="preserve">
<g>
	<path d="M59.7,74.3h-14L14,26.4v47.9H0V4.4h14l31.7,48v-48h14V74.3z"/>
	<path d="M124.6,50.8H84.1c0.3,4,1.7,7.1,4.2,9.4c2.5,2.3,5.5,3.4,9.1,3.4c5.2,0,8.9-2.2,11.1-6.7h15.1c-1.6,5.3-4.7,9.7-9.2,13.1
		c-4.5,3.4-10.1,5.1-16.7,5.1c-5.3,0-10.1-1.2-14.4-3.5c-4.2-2.4-7.5-5.7-9.9-10.1c-2.4-4.3-3.6-9.3-3.6-15c0-5.7,1.2-10.8,3.5-15.1
		c2.3-4.3,5.6-7.7,9.8-10c4.2-2.3,9-3.5,14.5-3.5c5.3,0,10,1.1,14.1,3.4c4.2,2.3,7.4,5.5,9.7,9.6c2.3,4.2,3.4,9,3.4,14.4
		C125,47.4,124.9,49.2,124.6,50.8z M110.5,41.4c-0.1-3.6-1.4-6.5-3.9-8.6c-2.5-2.2-5.6-3.2-9.3-3.2c-3.5,0-6.4,1-8.8,3.1
		c-2.4,2.1-3.8,5-4.4,8.8H110.5z"/>
	<path d="M212,18.9l-16.2,55.4h-15.1l-10.1-38.7l-10.1,38.7h-15.2L129,18.9h14.2l9.8,42.2l10.6-42.2h14.8L188.8,61l9.8-42.1H212z"/>
	<path d="M228.6,72.7c-3.6-1.6-6.4-3.9-8.5-6.7c-2.1-2.8-3.2-5.9-3.5-9.3h14.1c0.3,2.1,1.3,3.9,3.1,5.3c1.8,1.4,4.1,2.1,6.9,2.1
		c2.7,0,4.8-0.5,6.2-1.6c1.5-1.1,2.2-2.4,2.2-4.1c0-1.8-0.9-3.2-2.8-4.1c-1.8-0.9-4.8-1.9-8.8-2.9c-4.1-1-7.5-2-10.1-3.1
		c-2.6-1.1-4.9-2.7-6.8-4.9c-1.9-2.2-2.8-5.2-2.8-8.9c0-3.1,0.9-5.9,2.6-8.4c1.8-2.5,4.3-4.5,7.6-6c3.3-1.5,7.2-2.2,11.6-2.2
		c6.6,0,11.9,1.6,15.8,4.9c3.9,3.3,6.1,7.8,6.5,13.4h-13.4c-0.2-2.2-1.1-4-2.8-5.2c-1.6-1.3-3.8-2-6.5-2c-2.5,0-4.5,0.5-5.9,1.4
		c-1.4,0.9-2.1,2.2-2.1,3.9c0,1.9,0.9,3.3,2.8,4.2c1.9,1,4.8,1.9,8.7,2.9c4,1,7.3,2,9.9,3.1c2.6,1.1,4.8,2.7,6.8,5
		c1.9,2.2,2.9,5.2,2.9,8.9c0,3.2-0.9,6.1-2.6,8.6c-1.8,2.5-4.3,4.5-7.6,6c-3.3,1.4-7.1,2.1-11.5,2.1
		C236.3,75.2,232.2,74.4,228.6,72.7z"/>
	<path d="M314.1,7.4c-1.7,6.2-4,13.2-6.7,20.7l7.5,21.7h-16.3c-1.8,3.9-3.6,7.7-5.3,11.2h25.5l4.6,13.3h14.8L314.1,7.4z"/>
	<path d="M368.9,20.5c3.2-1.7,6.8-2.5,10.9-2.5c4.7,0,9,1.2,12.8,3.5c3.8,2.3,6.9,5.6,9.1,9.9c2.2,4.3,3.3,9.3,3.3,15
		c0,5.7-1.1,10.7-3.3,15c-2.2,4.4-5.3,7.8-9.1,10.1c-3.8,2.4-8.1,3.6-12.8,3.6c-4.1,0-7.7-0.8-10.8-2.5c-3.1-1.7-5.6-3.8-7.5-6.3
		v34.3h-14V18.9h14v8C363.3,24.3,365.8,22.2,368.9,20.5z M388.7,37.7c-1.4-2.4-3.2-4.3-5.4-5.6c-2.2-1.3-4.7-1.9-7.2-1.9
		c-2.5,0-4.9,0.6-7.2,2c-2.2,1.3-4,3.2-5.4,5.6c-1.4,2.5-2,5.4-2,8.7c0,3.3,0.7,6.2,2,8.7c1.4,2.5,3.2,4.4,5.4,5.6
		c2.2,1.3,4.6,2,7.2,2c2.6,0,5-0.7,7.2-2c2.2-1.3,4-3.2,5.4-5.7c1.4-2.5,2-5.4,2-8.8C390.8,43,390.1,40.2,388.7,37.7z"/>
	<path d="M436.7,20.5c3.2-1.7,6.8-2.5,10.9-2.5c4.7,0,9,1.2,12.8,3.5c3.8,2.3,6.9,5.6,9.1,9.9c2.2,4.3,3.3,9.3,3.3,15
		c0,5.7-1.1,10.7-3.3,15c-2.2,4.4-5.3,7.8-9.1,10.1c-3.8,2.4-8.1,3.6-12.8,3.6c-4.1,0-7.7-0.8-10.8-2.5c-3.1-1.7-5.6-3.8-7.5-6.3
		v34.3h-14V18.9h14v8C431.1,24.3,433.6,22.2,436.7,20.5z M456.5,37.7c-1.4-2.4-3.2-4.3-5.4-5.6c-2.2-1.3-4.7-1.9-7.2-1.9
		c-2.5,0-4.9,0.6-7.2,2c-2.2,1.3-4,3.2-5.4,5.6c-1.4,2.5-2,5.4-2,8.7c0,3.3,0.7,6.2,2,8.7c1.4,2.5,3.2,4.4,5.4,5.6
		c2.2,1.3,4.6,2,7.2,2c2.6,0,5-0.7,7.2-2c2.2-1.3,4-3.2,5.4-5.7c1.4-2.5,2-5.4,2-8.8C458.6,43,457.9,40.2,456.5,37.7z"/>
	<g>
		<path d="M279.4,66.6c-0.2,0.4-0.1,1,0.3,1.3l-7.1,17.3l-0.9-13.4l6.3-9.4l3.7,1.5l-0.8,2C280.3,65.8,279.6,66.1,279.4,66.6z"/>
		<path d="M281.5,67.5c-0.2,0.4-0.6,0.7-1.1,0.7l-7.1,17.3l10.1-8.9l2.1-11.1l-3.7-1.5l-0.8,2C281.5,66.3,281.7,66.9,281.5,67.5z"/>
		<polygon points="279.2,59.9 282.7,44.9 288.5,47.3 282.8,61.4 		"/>
		<polygon points="286.4,62.8 294.4,49.7 288.5,47.3 282.8,61.4 		"/>
		<polygon points="283.4,43.1 305.6,0 307.6,0.8 289.3,45.5 		"/>
		<polygon points="295.1,47.9 309.6,1.6 307.6,0.8 289.3,45.5 		"/>
	</g>
</g>
</svg>
