<?xml version="1.0" encoding="utf-8"?>
<!-- Generator: Adobe Illustrator 25.2.0, SVG Export Plug-In . SVG Version: 6.00 Build 0)  -->
<svg version="1.1" id="Warstwa_1" xmlns="http://www.w3.org/2000/svg" xmlns:xlink="http://www.w3.org/1999/xlink" x="0px" y="0px"
	 viewBox="0 0 176.4 176.4" style="enable-background:new 0 0 176.4 176.4;" xml:space="preserve">
<style type="text/css">
	.st0{fill:none;}
	.st1{fill:#040506;}
	.st2{fill:url(#SVGID_1_);}
	.st3{fill:url(#SVGID_2_);}
	.st4{fill:#008D36;}
	.st5{fill:url(#SVGID_3_);}
	.st6{fill:url(#SVGID_4_);}
	.st7{fill:url(#SVGID_5_);}
	.st8{fill:url(#SVGID_6_);}
	.st9{fill:url(#SVGID_7_);}
	.st10{fill:url(#SVGID_8_);}
	.st11{fill:url(#SVGID_9_);}
</style>
<pattern  x="-411.7" y="-412.1" width="4" height="4" patternUnits="userSpaceOnUse" id="Nowy_wzorek" viewBox="0.8 -4.8 4 4" style="overflow:visible;">
	<g>
		<rect x="0.8" y="-4.8" class="st0" width="4" height="4"/>
		<circle class="st1" cx="3.8" cy="-0.8" r="0.8"/>
		<circle class="st1" cx="1.8" cy="-0.8" r="0.8"/>
		<circle class="st1" cx="4.8" cy="-2.8" r="0.8"/>
		<circle class="st1" cx="2.8" cy="-2.8" r="0.8"/>
		<circle class="st1" cx="0.8" cy="-2.8" r="0.8"/>
		<circle class="st1" cx="3.8" cy="-4.8" r="0.8"/>
		<circle class="st1" cx="1.8" cy="-4.8" r="0.8"/>
	</g>
</pattern>
<g>
	<linearGradient id="SVGID_1_" gradientUnits="userSpaceOnUse" x1="88.21" y1="155.1472" x2="88.21" y2="21.2727">
		<stop  offset="0" style="stop-color:#2B2B2B"/>
		<stop  offset="1" style="stop-color:#646366"/>
	</linearGradient>
	<circle class="st2" cx="88.2" cy="88.2" r="66.9"/>
	<pattern  id="SVGID_2_" xlink:href="#Nowy_wzorek" patternTransform="matrix(1 0 0 1 2 2)">
	</pattern>
	<circle class="st3" cx="88.2" cy="88.2" r="66.9"/>
	<path class="st4" d="M144.2,99c-5,26.3-28.2,46.2-56,46.2c-27.8,0-50.9-19.9-55.9-46.2h-1c5.1,26.9,28.6,47.2,57,47.2
		s51.9-20.3,57-47.2H144.2z M88.2,30.2c-28,0-51.3,19.8-56.8,46.1h1c5.4-25.8,28.3-45.1,55.7-45.1c27.4,0,50.3,19.4,55.7,45.1h1
		C139.5,50,116.2,30.2,88.2,30.2z"/>
	<path class="st4" d="M144.2,99c-5,26.3-28.2,46.2-56,46.2c-27.8,0-50.9-19.9-55.9-46.2h-1c5.1,26.9,28.6,47.2,57,47.2
		s51.9-20.3,57-47.2H144.2z M88.2,30.2c-28,0-51.3,19.8-56.8,46.1h1c5.4-25.8,28.3-45.1,55.7-45.1c27.4,0,50.3,19.4,55.7,45.1h1
		C139.5,50,116.2,30.2,88.2,30.2z"/>
	<linearGradient id="SVGID_3_" gradientUnits="userSpaceOnUse" x1="88.21" y1="176.42" x2="88.21" y2="-9.094947e-13">
		<stop  offset="0" style="stop-color:#AB9B5A"/>
		<stop  offset="0.4797" style="stop-color:#E7CE78"/>
		<stop  offset="1" style="stop-color:#FCFBE7"/>
	</linearGradient>
	<path class="st5" d="M144.2,99c-5,26.3-28.2,46.2-56,46.2c-27.8,0-50.9-19.9-55.9-46.2h-1c5.1,26.9,28.6,47.2,57,47.2
		s51.9-20.3,57-47.2H144.2z M144.2,99c-5,26.3-28.2,46.2-56,46.2c-27.8,0-50.9-19.9-55.9-46.2h-1c5.1,26.9,28.6,47.2,57,47.2
		s51.9-20.3,57-47.2H144.2z M88.2,30.2c-28,0-51.3,19.8-56.8,46.1h1c5.4-25.8,28.3-45.1,55.7-45.1c27.4,0,50.3,19.4,55.7,45.1h1
		C139.5,50,116.2,30.2,88.2,30.2z M144.2,99c-5,26.3-28.2,46.2-56,46.2c-27.8,0-50.9-19.9-55.9-46.2h-1c5.1,26.9,28.6,47.2,57,47.2
		s51.9-20.3,57-47.2H144.2z M144.2,99c-5,26.3-28.2,46.2-56,46.2c-27.8,0-50.9-19.9-55.9-46.2h-1c5.1,26.9,28.6,47.2,57,47.2
		s51.9-20.3,57-47.2H144.2z M88.2,31.2c27.4,0,50.3,19.4,55.7,45.1h1c-5.5-26.3-28.8-46.1-56.8-46.1c-28,0-51.3,19.8-56.8,46.1h1
		C37.9,50.6,60.8,31.2,88.2,31.2z M175.6,76.4C169.8,33.2,132.9,0,88.2,0C43.5,0,6.6,33.2,0.8,76.4C0.3,80.2,0,84.2,0,88.2
		c0,3.7,0.2,7.3,0.7,10.8c5.3,43.6,42.5,77.4,87.5,77.4c45.1,0,82.2-33.8,87.6-77.4c0.4-3.5,0.7-7.1,0.7-10.8
		C176.4,84.2,176.1,80.2,175.6,76.4z M88.2,154.9c-33.1,0-60.6-24.2-65.8-55.8c-0.6-3.5-0.9-7.1-0.9-10.8c0-4,0.4-8,1-11.8
		c5.6-31.2,32.8-54.8,65.6-54.8c32.8,0,60,23.6,65.6,54.8c0.7,3.8,1,7.8,1,11.8c0,3.7-0.3,7.3-0.9,10.8
		C148.8,130.7,121.3,154.9,88.2,154.9z M88.2,145.2c-27.8,0-50.9-19.9-55.9-46.2h-1c5.1,26.9,28.6,47.2,57,47.2s51.9-20.3,57-47.2
		h-1C139.1,125.3,116,145.2,88.2,145.2z M88.2,31.2c27.4,0,50.3,19.4,55.7,45.1h1c-5.5-26.3-28.8-46.1-56.8-46.1
		c-28,0-51.3,19.8-56.8,46.1h1C37.9,50.6,60.8,31.2,88.2,31.2z M88.2,30.2c-28,0-51.3,19.8-56.8,46.1h1
		c5.4-25.8,28.3-45.1,55.7-45.1c27.4,0,50.3,19.4,55.7,45.1h1C139.5,50,116.2,30.2,88.2,30.2z M144.2,99c-5,26.3-28.2,46.2-56,46.2
		c-27.8,0-50.9-19.9-55.9-46.2h-1c5.1,26.9,28.6,47.2,57,47.2s51.9-20.3,57-47.2H144.2z M144.2,99c-5,26.3-28.2,46.2-56,46.2
		c-27.8,0-50.9-19.9-55.9-46.2h-1c5.1,26.9,28.6,47.2,57,47.2s51.9-20.3,57-47.2H144.2z M88.2,30.2c-28,0-51.3,19.8-56.8,46.1h1
		c5.4-25.8,28.3-45.1,55.7-45.1c27.4,0,50.3,19.4,55.7,45.1h1C139.5,50,116.2,30.2,88.2,30.2z"/>
	<linearGradient id="SVGID_4_" gradientUnits="userSpaceOnUse" x1="31.3247" y1="94.9102" x2="31.3247" y2="81.5098">
		<stop  offset="0" style="stop-color:#D6BE71"/>
		<stop  offset="1" style="stop-color:#F2E996"/>
	</linearGradient>
	<polygon class="st6" points="31.3,81.5 33.5,85.9 38.4,86.6 34.8,90.1 35.7,94.9 31.3,92.6 27,94.9 27.8,90.1 24.3,86.6 29.1,85.9 
			"/>
	<linearGradient id="SVGID_5_" gradientUnits="userSpaceOnUse" x1="144.2058" y1="94.9102" x2="144.2058" y2="81.5098">
		<stop  offset="0" style="stop-color:#D6BE71"/>
		<stop  offset="1" style="stop-color:#F2E996"/>
	</linearGradient>
	<polygon class="st7" points="144.2,81.5 146.4,85.9 151.3,86.6 147.7,90.1 148.6,94.9 144.2,92.6 139.9,94.9 140.7,90.1 
		137.2,86.6 142,85.9 	"/>
	<g>
		<linearGradient id="SVGID_6_" gradientUnits="userSpaceOnUse" x1="67.1714" y1="114.9302" x2="67.1714" y2="61.7899">
			<stop  offset="0" style="stop-color:#D9C170"/>
			<stop  offset="0.4949" style="stop-color:#EED57E"/>
			<stop  offset="1" style="stop-color:#F1E590"/>
		</linearGradient>
		<path class="st8" d="M89.1,108.5c-4.7,4-10.7,6.5-17.4,6.5c-14.7,0-26.6-11.9-26.6-26.6V61.8h12.6v26.6c0,7.7,6.2,13.9,13.9,13.9
			c4.4,0,8.3-2,10.9-5.2C83.9,101.4,86.2,105.3,89.1,108.5z"/>
		<linearGradient id="SVGID_7_" gradientUnits="userSpaceOnUse" x1="91.7164" y1="72.8038" x2="91.7164" y2="61.7899">
			<stop  offset="0" style="stop-color:#D9C170"/>
			<stop  offset="0.4949" style="stop-color:#EED57E"/>
			<stop  offset="1" style="stop-color:#F1E590"/>
		</linearGradient>
		<path class="st9" d="M97.7,61.8c-3.2,1.6-6.2,3.8-8.6,6.5c-1.3,1.4-2.4,2.9-3.4,4.5v-11H97.7z"/>
		<linearGradient id="SVGID_8_" gradientUnits="userSpaceOnUse" x1="107.8313" y1="114.9302" x2="107.8313" y2="61.7899">
			<stop  offset="0" style="stop-color:#D9C170"/>
			<stop  offset="0.4949" style="stop-color:#EED57E"/>
			<stop  offset="1" style="stop-color:#F1E590"/>
		</linearGradient>
		<path class="st10" d="M111,102.3c-6,0-11.1-3.8-13.1-9.1v0c-0.5-1.5-0.8-3.1-0.8-4.8c0-1.7,0.3-3.3,0.8-4.8v0
			c0.1-0.3,0.3-0.7,0.4-1c2.2-4.8,7-8.1,12.7-8.1c4.6,0,8.7,2.2,11.2,5.7l9-9c-4.9-5.7-12.1-9.3-20.2-9.3c-4.6,0-8.9,1.2-12.7,3.2
			c-2.6,1.4-5,3.3-7,5.4c-2.5,2.8-4.5,6.1-5.7,9.8c-0.4,1.1-0.6,2.2-0.8,3.4c-0.3,1.6-0.4,3.1-0.4,4.8s0.1,3.2,0.4,4.8
			c0.9,5,3.2,9.5,6.5,13.1c4.9,5.3,11.9,8.7,19.6,8.7c8.1,0,15.3-3.6,20.2-9.3l-9-9C119.7,100.1,115.6,102.3,111,102.3z"/>
	</g>
	<linearGradient id="SVGID_9_" gradientUnits="userSpaceOnUse" x1="88.21" y1="170.475" x2="88.21" y2="5.945">
		<stop  offset="5.076142e-03" style="stop-color:#050607"/>
		<stop  offset="1" style="stop-color:#564A36"/>
	</linearGradient>
	<path class="st11" d="M88.2,5.9C42.8,5.9,5.9,42.8,5.9,88.2c0,45.4,36.8,82.3,82.3,82.3c45.4,0,82.3-36.8,82.3-82.3
		C170.5,42.8,133.6,5.9,88.2,5.9z M88.2,168.2c-44.2,0-79.9-35.8-79.9-79.9c0-44.2,35.8-80,79.9-80s80,35.8,80,80
		C168.2,132.4,132.4,168.2,88.2,168.2z"/>
</g>
</svg>
