<?xml version="1.0" encoding="utf-8"?>
<!-- Generator: Adobe Illustrator 25.2.0, SVG Export Plug-In . SVG Version: 6.00 Build 0)  -->
<svg version="1.1" id="Warstwa_1" xmlns="http://www.w3.org/2000/svg" xmlns:xlink="http://www.w3.org/1999/xlink" x="0px" y="0px"
	 viewBox="0 0 176.4 176.4" style="enable-background:new 0 0 176.4 176.4;" xml:space="preserve">
<style type="text/css">
	.st0{fill:url(#SVGID_1_);}
	.st1{fill:url(#SVGID_2_);}
	.st2{fill:#111126;}
	.st3{fill:url(#SVGID_3_);}
	.st4{fill:url(#SVGID_4_);}
	.st5{fill:url(#SVGID_5_);}
	.st6{fill:url(#SVGID_6_);}
	.st7{fill:url(#SVGID_7_);}
	.st8{fill:url(#SVGID_8_);}
	.st9{fill:url(#SVGID_9_);}
</style>
<g>
	<circle cx="88.2" cy="88.2" r="88.2"/>
	<linearGradient id="SVGID_1_" gradientUnits="userSpaceOnUse" x1="88.21" y1="176.42" x2="88.21" y2="1.818989e-12">
		<stop  offset="0" style="stop-color:#DDCA7D"/>
		<stop  offset="1" style="stop-color:#E4D48E"/>
	</linearGradient>
	<circle class="st0" cx="88.2" cy="88.2" r="88.2"/>
	<circle cx="88.2" cy="88.2" r="82.3"/>
	<linearGradient id="SVGID_2_" gradientUnits="userSpaceOnUse" x1="88.21" y1="168.155" x2="88.21" y2="8.265">
		<stop  offset="0" style="stop-color:#DDCA7D"/>
		<stop  offset="1" style="stop-color:#E4D48E"/>
	</linearGradient>
	<circle class="st1" cx="88.2" cy="88.2" r="79.9"/>
	<circle class="st2" cx="88.2" cy="88.2" r="66.5"/>
	<g>
		<linearGradient id="SVGID_3_" gradientUnits="userSpaceOnUse" x1="88.21" y1="33.5317" x2="88.21" y2="146.0162">
			<stop  offset="0" style="stop-color:#DDCA7D"/>
			<stop  offset="1" style="stop-color:#E4D48E"/>
		</linearGradient>
		<path class="st3" d="M143.9,99.5L143.9,99.5c0.6,0,1.1,0.6,1,1.2c-5.7,26-28.9,45.4-56.6,45.4s-50.9-19.4-56.6-45.4
			c-0.1-0.6,0.3-1.2,1-1.2h0c0.5,0,0.9,0.3,1,0.8c5.5,25.1,27.9,43.9,54.7,43.9c26.8,0,49.2-18.8,54.7-43.9
			C143,99.9,143.4,99.5,143.9,99.5z"/>
		<linearGradient id="SVGID_4_" gradientUnits="userSpaceOnUse" x1="88.21" y1="33.8523" x2="88.21" y2="147.1354">
			<stop  offset="0" style="stop-color:#DDCA7D"/>
			<stop  offset="1" style="stop-color:#E4D48E"/>
		</linearGradient>
		<path class="st4" d="M32.6,76.9L32.6,76.9c-0.6,0-1.1-0.6-1-1.2c5.7-26,28.9-45.4,56.6-45.4s50.9,19.4,56.6,45.4
			c0.1,0.6-0.3,1.2-1,1.2h0c-0.5,0-0.9-0.3-1-0.8C137.4,51,115,32.2,88.2,32.2c-26.8,0-49.1,18.8-54.7,43.9
			C33.4,76.6,33,76.9,32.6,76.9z"/>
	</g>
	<g>
		<linearGradient id="SVGID_5_" gradientUnits="userSpaceOnUse" x1="67.1694" y1="114.7789" x2="67.1694" y2="61.6386">
			<stop  offset="0" style="stop-color:#DDCA7D"/>
			<stop  offset="1" style="stop-color:#E4D48E"/>
		</linearGradient>
		<path class="st5" d="M89.1,108.3c-4.7,4-10.7,6.5-17.4,6.5c-14.7,0-26.6-11.9-26.6-26.6V61.6h12.6v26.6c0,7.7,6.2,13.9,13.9,13.9
			c4.4,0,8.3-2,10.9-5.2C83.9,101.2,86.2,105.1,89.1,108.3z"/>
		<linearGradient id="SVGID_6_" gradientUnits="userSpaceOnUse" x1="91.7144" y1="72.6525" x2="91.7144" y2="61.6386">
			<stop  offset="0" style="stop-color:#DDCA7D"/>
			<stop  offset="1" style="stop-color:#E4D48E"/>
		</linearGradient>
		<path class="st6" d="M97.7,61.6c-3.2,1.6-6.2,3.8-8.6,6.5c-1.3,1.4-2.4,2.9-3.4,4.5v-11H97.7z"/>
		<linearGradient id="SVGID_7_" gradientUnits="userSpaceOnUse" x1="107.8317" y1="114.7814" x2="107.8317" y2="61.6414">
			<stop  offset="0" style="stop-color:#DDCA7D"/>
			<stop  offset="1" style="stop-color:#E4D48E"/>
		</linearGradient>
		<path class="st7" d="M111,102.2c-6,0-11.1-3.8-13.1-9.1c-0.5-1.5-0.8-3.1-0.8-4.8c0-1.7,0.3-3.3,0.8-4.8v0c0.1-0.3,0.3-0.7,0.4-1
			c2.2-4.8,7-8.1,12.7-8.1c4.6,0,8.7,2.2,11.2,5.7l9-9c-4.9-5.7-12.1-9.3-20.2-9.3c-4.6,0-8.9,1.2-12.7,3.2c-2.6,1.4-5,3.3-7,5.5
			c-2.5,2.8-4.5,6.1-5.7,9.8c-0.4,1.1-0.6,2.2-0.8,3.4c-0.3,1.5-0.4,3.1-0.4,4.8s0.2,3.2,0.4,4.8c0.9,5,3.2,9.5,6.5,13.1
			c4.9,5.3,11.8,8.6,19.6,8.6c8.1,0,15.3-3.6,20.2-9.3l-9-9C119.7,99.9,115.6,102.2,111,102.2z"/>
	</g>
	<linearGradient id="SVGID_8_" gradientUnits="userSpaceOnUse" x1="144.6505" y1="94.9102" x2="144.6505" y2="81.5098">
		<stop  offset="0" style="stop-color:#DDCA7D"/>
		<stop  offset="1" style="stop-color:#E4D48E"/>
	</linearGradient>
	<polygon class="st8" points="144.7,81.5 146.8,85.9 151.7,86.6 148.2,90.1 149,94.9 144.7,92.6 140.3,94.9 141.1,90.1 137.6,86.6 
		142.5,85.9 	"/>
	<linearGradient id="SVGID_9_" gradientUnits="userSpaceOnUse" x1="31.5684" y1="94.9102" x2="31.5684" y2="81.5098">
		<stop  offset="0" style="stop-color:#DDCA7D"/>
		<stop  offset="1" style="stop-color:#E4D48E"/>
	</linearGradient>
	<polygon class="st9" points="31.6,81.5 33.7,85.9 38.6,86.6 35.1,90.1 35.9,94.9 31.6,92.6 27.2,94.9 28,90.1 24.5,86.6 29.4,85.9 
			"/>
</g>
</svg>
